<svg height="15" viewBox="0 0 15 15" width="15" xmlns="http://www.w3.org/2000/svg"><path d="m2.64 1.27 4.86 4.86 4.84-4.84c.1714-.1824.4097-.2871.66-.29.5523 0 1 .4477 1 1 .0047.2478-.093.4866-.27.66l-4.89 4.84 4.89 4.89c.1648.1612.2615.3796.27.61 0 .5523-.4477 1-1 1-.2577.0107-.508-.0873-.69-.27l-4.81-4.86-4.85 4.85c-.1707.1763-.4047.2771-.65.28-.5523 0-1-.4477-1-1-.0047-.2478.093-.4866.27-.66l4.89-4.84-4.89-4.89c-.1648-.1612-.2615-.3796-.27-.61 0-.5523.4477-1 1-1 .2404.0029.4701.0998.64.27z"/></svg>